%TF.GenerationSoftware,KiCad,Pcbnew,10.0.5*%
%TF.CreationDate,2026-08-25T10:28:08+02:00*%
%TF.ProjectId,rail-tester,7261696c-2d74-4657-9374-65722e6b6963,rev?*%
%TF.SameCoordinates,Original*%
%TF.FileFunction,Legend,Top*%
%TF.FilePolarity,Positive*%
%FSLAX46Y46*%
G04 Gerber Fmt 4.6, Leading zero omitted, Abs format (unit mm)*
G04 Created by KiCad (PCBNEW 10.0.5) date 2026-08-25 10:28:08*
%MOMM*%
%LPD*%
G01*
G04 APERTURE LIST*
%ADD10C,0.120000*%
%ADD11C,0.158750*%
%ADD12C,0.150000*%
G04 APERTURE END LIST*
D10*
X113738094Y-112563855D02*
X113357142Y-112563855D01*
X113357142Y-112563855D02*
X113319046Y-112944807D01*
X113319046Y-112944807D02*
X113357142Y-112906712D01*
X113357142Y-112906712D02*
X113433332Y-112868617D01*
X113433332Y-112868617D02*
X113623808Y-112868617D01*
X113623808Y-112868617D02*
X113699999Y-112906712D01*
X113699999Y-112906712D02*
X113738094Y-112944807D01*
X113738094Y-112944807D02*
X113776189Y-113020998D01*
X113776189Y-113020998D02*
X113776189Y-113211474D01*
X113776189Y-113211474D02*
X113738094Y-113287664D01*
X113738094Y-113287664D02*
X113699999Y-113325760D01*
X113699999Y-113325760D02*
X113623808Y-113363855D01*
X113623808Y-113363855D02*
X113433332Y-113363855D01*
X113433332Y-113363855D02*
X113357142Y-113325760D01*
X113357142Y-113325760D02*
X113319046Y-113287664D01*
X114119047Y-113059093D02*
X114728571Y-113059093D01*
X115109523Y-113363855D02*
X115109523Y-112563855D01*
X115109523Y-112563855D02*
X115414285Y-112563855D01*
X115414285Y-112563855D02*
X115490475Y-112601950D01*
X115490475Y-112601950D02*
X115528570Y-112640045D01*
X115528570Y-112640045D02*
X115566666Y-112716236D01*
X115566666Y-112716236D02*
X115566666Y-112830521D01*
X115566666Y-112830521D02*
X115528570Y-112906712D01*
X115528570Y-112906712D02*
X115490475Y-112944807D01*
X115490475Y-112944807D02*
X115414285Y-112982902D01*
X115414285Y-112982902D02*
X115109523Y-112982902D01*
X115909523Y-113363855D02*
X115909523Y-112563855D01*
X116214284Y-112563855D02*
X116747618Y-113363855D01*
X116747618Y-112563855D02*
X116214284Y-113363855D01*
X117052380Y-112944807D02*
X117319046Y-112944807D01*
X117433332Y-113363855D02*
X117052380Y-113363855D01*
X117052380Y-113363855D02*
X117052380Y-112563855D01*
X117052380Y-112563855D02*
X117433332Y-112563855D01*
X118157142Y-113363855D02*
X117776190Y-113363855D01*
X117776190Y-113363855D02*
X117776190Y-112563855D01*
X119490476Y-113363855D02*
X119223809Y-112982902D01*
X119033333Y-113363855D02*
X119033333Y-112563855D01*
X119033333Y-112563855D02*
X119338095Y-112563855D01*
X119338095Y-112563855D02*
X119414285Y-112601950D01*
X119414285Y-112601950D02*
X119452380Y-112640045D01*
X119452380Y-112640045D02*
X119490476Y-112716236D01*
X119490476Y-112716236D02*
X119490476Y-112830521D01*
X119490476Y-112830521D02*
X119452380Y-112906712D01*
X119452380Y-112906712D02*
X119414285Y-112944807D01*
X119414285Y-112944807D02*
X119338095Y-112982902D01*
X119338095Y-112982902D02*
X119033333Y-112982902D01*
X119795237Y-113135283D02*
X120176190Y-113135283D01*
X119719047Y-113363855D02*
X119985714Y-112563855D01*
X119985714Y-112563855D02*
X120252380Y-113363855D01*
X120519047Y-113363855D02*
X120519047Y-112563855D01*
X121280951Y-113363855D02*
X120899999Y-113363855D01*
X120899999Y-113363855D02*
X120899999Y-112563855D01*
X122042856Y-112563855D02*
X122499999Y-112563855D01*
X122271427Y-113363855D02*
X122271427Y-112563855D01*
X122766666Y-112944807D02*
X123033332Y-112944807D01*
X123147618Y-113363855D02*
X122766666Y-113363855D01*
X122766666Y-113363855D02*
X122766666Y-112563855D01*
X122766666Y-112563855D02*
X123147618Y-112563855D01*
X123452380Y-113325760D02*
X123566666Y-113363855D01*
X123566666Y-113363855D02*
X123757142Y-113363855D01*
X123757142Y-113363855D02*
X123833333Y-113325760D01*
X123833333Y-113325760D02*
X123871428Y-113287664D01*
X123871428Y-113287664D02*
X123909523Y-113211474D01*
X123909523Y-113211474D02*
X123909523Y-113135283D01*
X123909523Y-113135283D02*
X123871428Y-113059093D01*
X123871428Y-113059093D02*
X123833333Y-113020998D01*
X123833333Y-113020998D02*
X123757142Y-112982902D01*
X123757142Y-112982902D02*
X123604761Y-112944807D01*
X123604761Y-112944807D02*
X123528571Y-112906712D01*
X123528571Y-112906712D02*
X123490476Y-112868617D01*
X123490476Y-112868617D02*
X123452380Y-112792426D01*
X123452380Y-112792426D02*
X123452380Y-112716236D01*
X123452380Y-112716236D02*
X123490476Y-112640045D01*
X123490476Y-112640045D02*
X123528571Y-112601950D01*
X123528571Y-112601950D02*
X123604761Y-112563855D01*
X123604761Y-112563855D02*
X123795238Y-112563855D01*
X123795238Y-112563855D02*
X123909523Y-112601950D01*
X124138095Y-112563855D02*
X124595238Y-112563855D01*
X124366666Y-113363855D02*
X124366666Y-112563855D01*
X124861905Y-112944807D02*
X125128571Y-112944807D01*
X125242857Y-113363855D02*
X124861905Y-113363855D01*
X124861905Y-113363855D02*
X124861905Y-112563855D01*
X124861905Y-112563855D02*
X125242857Y-112563855D01*
X126042858Y-113363855D02*
X125776191Y-112982902D01*
X125585715Y-113363855D02*
X125585715Y-112563855D01*
X125585715Y-112563855D02*
X125890477Y-112563855D01*
X125890477Y-112563855D02*
X125966667Y-112601950D01*
X125966667Y-112601950D02*
X126004762Y-112640045D01*
X126004762Y-112640045D02*
X126042858Y-112716236D01*
X126042858Y-112716236D02*
X126042858Y-112830521D01*
X126042858Y-112830521D02*
X126004762Y-112906712D01*
X126004762Y-112906712D02*
X125966667Y-112944807D01*
X125966667Y-112944807D02*
X125890477Y-112982902D01*
X125890477Y-112982902D02*
X125585715Y-112982902D01*
X127109524Y-113020998D02*
X127071429Y-113059093D01*
X127071429Y-113059093D02*
X127109524Y-113097188D01*
X127109524Y-113097188D02*
X127147620Y-113059093D01*
X127147620Y-113059093D02*
X127109524Y-113020998D01*
X127109524Y-113020998D02*
X127109524Y-113097188D01*
X128100001Y-112563855D02*
X128366668Y-113363855D01*
X128366668Y-113363855D02*
X128633334Y-112563855D01*
X129280953Y-113363855D02*
X128900001Y-113363855D01*
X128900001Y-113363855D02*
X128900001Y-112563855D01*
X129547620Y-112944807D02*
X129814286Y-112944807D01*
X129928572Y-113363855D02*
X129547620Y-113363855D01*
X129547620Y-113363855D02*
X129547620Y-112563855D01*
X129547620Y-112563855D02*
X129928572Y-112563855D01*
X130271430Y-113363855D02*
X130271430Y-112563855D01*
X130271430Y-112563855D02*
X130461906Y-112563855D01*
X130461906Y-112563855D02*
X130576192Y-112601950D01*
X130576192Y-112601950D02*
X130652382Y-112678140D01*
X130652382Y-112678140D02*
X130690477Y-112754331D01*
X130690477Y-112754331D02*
X130728573Y-112906712D01*
X130728573Y-112906712D02*
X130728573Y-113020998D01*
X130728573Y-113020998D02*
X130690477Y-113173379D01*
X130690477Y-113173379D02*
X130652382Y-113249569D01*
X130652382Y-113249569D02*
X130576192Y-113325760D01*
X130576192Y-113325760D02*
X130461906Y-113363855D01*
X130461906Y-113363855D02*
X130271430Y-113363855D01*
X131604763Y-112563855D02*
X132100001Y-112563855D01*
X132100001Y-112563855D02*
X131833335Y-112868617D01*
X131833335Y-112868617D02*
X131947620Y-112868617D01*
X131947620Y-112868617D02*
X132023811Y-112906712D01*
X132023811Y-112906712D02*
X132061906Y-112944807D01*
X132061906Y-112944807D02*
X132100001Y-113020998D01*
X132100001Y-113020998D02*
X132100001Y-113211474D01*
X132100001Y-113211474D02*
X132061906Y-113287664D01*
X132061906Y-113287664D02*
X132023811Y-113325760D01*
X132023811Y-113325760D02*
X131947620Y-113363855D01*
X131947620Y-113363855D02*
X131719049Y-113363855D01*
X131719049Y-113363855D02*
X131642858Y-113325760D01*
X131642858Y-113325760D02*
X131604763Y-113287664D01*
X132442859Y-113287664D02*
X132480954Y-113325760D01*
X132480954Y-113325760D02*
X132442859Y-113363855D01*
X132442859Y-113363855D02*
X132404763Y-113325760D01*
X132404763Y-113325760D02*
X132442859Y-113287664D01*
X132442859Y-113287664D02*
X132442859Y-113363855D01*
X132747620Y-112563855D02*
X133242858Y-112563855D01*
X133242858Y-112563855D02*
X132976192Y-112868617D01*
X132976192Y-112868617D02*
X133090477Y-112868617D01*
X133090477Y-112868617D02*
X133166668Y-112906712D01*
X133166668Y-112906712D02*
X133204763Y-112944807D01*
X133204763Y-112944807D02*
X133242858Y-113020998D01*
X133242858Y-113020998D02*
X133242858Y-113211474D01*
X133242858Y-113211474D02*
X133204763Y-113287664D01*
X133204763Y-113287664D02*
X133166668Y-113325760D01*
X133166668Y-113325760D02*
X133090477Y-113363855D01*
X133090477Y-113363855D02*
X132861906Y-113363855D01*
X132861906Y-113363855D02*
X132785715Y-113325760D01*
X132785715Y-113325760D02*
X132747620Y-113287664D01*
X133585716Y-113059093D02*
X134195240Y-113059093D01*
X134957144Y-112563855D02*
X134576192Y-112563855D01*
X134576192Y-112563855D02*
X134538096Y-112944807D01*
X134538096Y-112944807D02*
X134576192Y-112906712D01*
X134576192Y-112906712D02*
X134652382Y-112868617D01*
X134652382Y-112868617D02*
X134842858Y-112868617D01*
X134842858Y-112868617D02*
X134919049Y-112906712D01*
X134919049Y-112906712D02*
X134957144Y-112944807D01*
X134957144Y-112944807D02*
X134995239Y-113020998D01*
X134995239Y-113020998D02*
X134995239Y-113211474D01*
X134995239Y-113211474D02*
X134957144Y-113287664D01*
X134957144Y-113287664D02*
X134919049Y-113325760D01*
X134919049Y-113325760D02*
X134842858Y-113363855D01*
X134842858Y-113363855D02*
X134652382Y-113363855D01*
X134652382Y-113363855D02*
X134576192Y-113325760D01*
X134576192Y-113325760D02*
X134538096Y-113287664D01*
X135223811Y-112563855D02*
X135490478Y-113363855D01*
X135490478Y-113363855D02*
X135757144Y-112563855D01*
D11*
X102076667Y-102009271D02*
X102076667Y-102916414D01*
X102076667Y-102916414D02*
X102016190Y-103097842D01*
X102016190Y-103097842D02*
X101895238Y-103218795D01*
X101895238Y-103218795D02*
X101713809Y-103279271D01*
X101713809Y-103279271D02*
X101592857Y-103279271D01*
X103346667Y-103279271D02*
X102620952Y-103279271D01*
X102983809Y-103279271D02*
X102983809Y-102009271D01*
X102983809Y-102009271D02*
X102862857Y-102190699D01*
X102862857Y-102190699D02*
X102741905Y-102311652D01*
X102741905Y-102311652D02*
X102620952Y-102372128D01*
D10*
X99633333Y-104023855D02*
X99900000Y-104823855D01*
X99900000Y-104823855D02*
X100166666Y-104023855D01*
X100109523Y-106601950D02*
X100033333Y-106563855D01*
X100033333Y-106563855D02*
X99919047Y-106563855D01*
X99919047Y-106563855D02*
X99804761Y-106601950D01*
X99804761Y-106601950D02*
X99728571Y-106678140D01*
X99728571Y-106678140D02*
X99690476Y-106754331D01*
X99690476Y-106754331D02*
X99652380Y-106906712D01*
X99652380Y-106906712D02*
X99652380Y-107020998D01*
X99652380Y-107020998D02*
X99690476Y-107173379D01*
X99690476Y-107173379D02*
X99728571Y-107249569D01*
X99728571Y-107249569D02*
X99804761Y-107325760D01*
X99804761Y-107325760D02*
X99919047Y-107363855D01*
X99919047Y-107363855D02*
X99995238Y-107363855D01*
X99995238Y-107363855D02*
X100109523Y-107325760D01*
X100109523Y-107325760D02*
X100147619Y-107287664D01*
X100147619Y-107287664D02*
X100147619Y-107020998D01*
X100147619Y-107020998D02*
X99995238Y-107020998D01*
X99690476Y-109903855D02*
X99690476Y-109103855D01*
X99690476Y-109103855D02*
X99880952Y-109103855D01*
X99880952Y-109103855D02*
X99995238Y-109141950D01*
X99995238Y-109141950D02*
X100071428Y-109218140D01*
X100071428Y-109218140D02*
X100109523Y-109294331D01*
X100109523Y-109294331D02*
X100147619Y-109446712D01*
X100147619Y-109446712D02*
X100147619Y-109560998D01*
X100147619Y-109560998D02*
X100109523Y-109713379D01*
X100109523Y-109713379D02*
X100071428Y-109789569D01*
X100071428Y-109789569D02*
X99995238Y-109865760D01*
X99995238Y-109865760D02*
X99880952Y-109903855D01*
X99880952Y-109903855D02*
X99690476Y-109903855D01*
X114700000Y-105917593D02*
X114300000Y-105917593D01*
X114500000Y-105917593D02*
X114500000Y-105217593D01*
X114500000Y-105217593D02*
X114433333Y-105317593D01*
X114433333Y-105317593D02*
X114366667Y-105384260D01*
X114366667Y-105384260D02*
X114300000Y-105417593D01*
X121700000Y-105917593D02*
X121300000Y-105917593D01*
X121500000Y-105917593D02*
X121500000Y-105217593D01*
X121500000Y-105217593D02*
X121433333Y-105317593D01*
X121433333Y-105317593D02*
X121366667Y-105384260D01*
X121366667Y-105384260D02*
X121300000Y-105417593D01*
X128700000Y-105917593D02*
X128300000Y-105917593D01*
X128500000Y-105917593D02*
X128500000Y-105217593D01*
X128500000Y-105217593D02*
X128433333Y-105317593D01*
X128433333Y-105317593D02*
X128366667Y-105384260D01*
X128366667Y-105384260D02*
X128300000Y-105417593D01*
X135700000Y-105917593D02*
X135300000Y-105917593D01*
X135500000Y-105917593D02*
X135500000Y-105217593D01*
X135500000Y-105217593D02*
X135433333Y-105317593D01*
X135433333Y-105317593D02*
X135366667Y-105384260D01*
X135366667Y-105384260D02*
X135300000Y-105417593D01*
X142700000Y-105917593D02*
X142300000Y-105917593D01*
X142500000Y-105917593D02*
X142500000Y-105217593D01*
X142500000Y-105217593D02*
X142433333Y-105317593D01*
X142433333Y-105317593D02*
X142366667Y-105384260D01*
X142366667Y-105384260D02*
X142300000Y-105417593D01*
%TO.C,J1*%
D12*
X100700000Y-103200000D02*
X104300000Y-103200000D01*
X104300000Y-110800000D01*
X100700000Y-110800000D01*
X100700000Y-103200000D01*
%TD*%
M02*
