%TF.GenerationSoftware,KiCad,Pcbnew,10.0.5*%
%TF.CreationDate,2026-08-25T10:28:08+02:00*%
%TF.ProjectId,rail-tester,7261696c-2d74-4657-9374-65722e6b6963,rev?*%
%TF.SameCoordinates,Original*%
%TF.FileFunction,Soldermask,Top*%
%TF.FilePolarity,Negative*%
%FSLAX46Y46*%
G04 Gerber Fmt 4.6, Leading zero omitted, Abs format (unit mm)*
G04 Created by KiCad (PCBNEW 10.0.5) date 2026-08-25 10:28:08*
%MOMM*%
%LPD*%
G01*
G04 APERTURE LIST*
G04 Aperture macros list*
%AMRoundRect*
0 Rectangle with rounded corners*
0 $1 Rounding radius*
0 $2 $3 $4 $5 $6 $7 $8 $9 X,Y pos of 4 corners*
0 Add a 4 corners polygon primitive as box body*
4,1,4,$2,$3,$4,$5,$6,$7,$8,$9,$2,$3,0*
0 Add four circle primitives for the rounded corners*
1,1,$1+$1,$2,$3*
1,1,$1+$1,$4,$5*
1,1,$1+$1,$6,$7*
1,1,$1+$1,$8,$9*
0 Add four rect primitives between the rounded corners*
20,1,$1+$1,$2,$3,$4,$5,0*
20,1,$1+$1,$4,$5,$6,$7,0*
20,1,$1+$1,$6,$7,$8,$9,0*
20,1,$1+$1,$8,$9,$2,$3,0*%
G04 Aperture macros list end*
%ADD10R,2.800000X1.800000*%
%ADD11O,2.800000X1.800000*%
%ADD12RoundRect,0.180000X-0.270000X-0.295000X0.270000X-0.295000X0.270000X0.295000X-0.270000X0.295000X0*%
%ADD13R,0.700000X0.700000*%
%ADD14C,1.800000*%
G04 APERTURE END LIST*
D10*
%TO.C,J1*%
X102500000Y-104460000D03*
D11*
X102500000Y-107000000D03*
X102500000Y-109540000D03*
%TD*%
D12*
%TO.C,R1*%
X105750000Y-109540000D03*
X107250000Y-109540000D03*
%TD*%
%TO.C,C1*%
X105250000Y-102800000D03*
X106750000Y-102800000D03*
%TD*%
D13*
%TO.C,D1*%
X115085000Y-106450000D03*
X115085000Y-107550000D03*
X116915000Y-107550000D03*
X116915000Y-106450000D03*
%TD*%
%TO.C,D2*%
X122085000Y-106450000D03*
X122085000Y-107550000D03*
X123915000Y-107550000D03*
X123915000Y-106450000D03*
%TD*%
%TO.C,D3*%
X129085000Y-106450000D03*
X129085000Y-107550000D03*
X130915000Y-107550000D03*
X130915000Y-106450000D03*
%TD*%
%TO.C,D4*%
X136085000Y-106450000D03*
X136085000Y-107550000D03*
X137915000Y-107550000D03*
X137915000Y-106450000D03*
%TD*%
%TO.C,D5*%
X143085000Y-106450000D03*
X143085000Y-107550000D03*
X144915000Y-107550000D03*
X144915000Y-106450000D03*
%TD*%
D12*
%TO.C,C2*%
X112750000Y-102800000D03*
X114250000Y-102800000D03*
%TD*%
%TO.C,C3*%
X119750000Y-102800000D03*
X121250000Y-102800000D03*
%TD*%
%TO.C,C4*%
X126750000Y-102800000D03*
X128250000Y-102800000D03*
%TD*%
%TO.C,C5*%
X133750000Y-102800000D03*
X135250000Y-102800000D03*
%TD*%
%TO.C,C6*%
X140750000Y-102800000D03*
X142250000Y-102800000D03*
%TD*%
D14*
%TO.C,TP1*%
X147000000Y-104000000D03*
%TD*%
M02*
