%TF.GenerationSoftware,KiCad,Pcbnew,10.0.5*%
%TF.CreationDate,2026-08-25T10:28:08+02:00*%
%TF.ProjectId,rail-tester,7261696c-2d74-4657-9374-65722e6b6963,rev?*%
%TF.SameCoordinates,Original*%
%TF.FileFunction,Copper,L1,Top*%
%TF.FilePolarity,Positive*%
%FSLAX46Y46*%
G04 Gerber Fmt 4.6, Leading zero omitted, Abs format (unit mm)*
G04 Created by KiCad (PCBNEW 10.0.5) date 2026-08-25 10:28:08*
%MOMM*%
%LPD*%
G01*
G04 APERTURE LIST*
G04 Aperture macros list*
%AMRoundRect*
0 Rectangle with rounded corners*
0 $1 Rounding radius*
0 $2 $3 $4 $5 $6 $7 $8 $9 X,Y pos of 4 corners*
0 Add a 4 corners polygon primitive as box body*
4,1,4,$2,$3,$4,$5,$6,$7,$8,$9,$2,$3,0*
0 Add four circle primitives for the rounded corners*
1,1,$1+$1,$2,$3*
1,1,$1+$1,$4,$5*
1,1,$1+$1,$6,$7*
1,1,$1+$1,$8,$9*
0 Add four rect primitives between the rounded corners*
20,1,$1+$1,$2,$3,$4,$5,0*
20,1,$1+$1,$4,$5,$6,$7,0*
20,1,$1+$1,$6,$7,$8,$9,0*
20,1,$1+$1,$8,$9,$2,$3,0*%
G04 Aperture macros list end*
%TA.AperFunction,ComponentPad*%
%ADD10R,2.800000X1.800000*%
%TD*%
%TA.AperFunction,ComponentPad*%
%ADD11O,2.800000X1.800000*%
%TD*%
%TA.AperFunction,SMDPad,CuDef*%
%ADD12RoundRect,0.180000X-0.270000X-0.295000X0.270000X-0.295000X0.270000X0.295000X-0.270000X0.295000X0*%
%TD*%
%TA.AperFunction,SMDPad,CuDef*%
%ADD13R,0.700000X0.700000*%
%TD*%
%TA.AperFunction,SMDPad,CuDef*%
%ADD14C,1.800000*%
%TD*%
%TA.AperFunction,ViaPad*%
%ADD15C,0.800000*%
%TD*%
%TA.AperFunction,Conductor*%
%ADD16C,0.500000*%
%TD*%
%TA.AperFunction,Conductor*%
%ADD17C,0.300000*%
%TD*%
G04 APERTURE END LIST*
D10*
%TO.P,J1,1*%
%TO.N,+VLED*%
X102500000Y-104460000D03*
D11*
%TO.P,J1,2*%
%TO.N,GND*%
X102500000Y-107000000D03*
%TO.P,J1,3*%
%TO.N,DIN_RAW*%
X102500000Y-109540000D03*
%TD*%
D12*
%TO.P,R1,1*%
%TO.N,DIN_RAW*%
X105750000Y-109540000D03*
%TO.P,R1,2*%
%TO.N,DIN_1*%
X107250000Y-109540000D03*
%TD*%
%TO.P,C1,1*%
%TO.N,+VLED*%
X105250000Y-102800000D03*
%TO.P,C1,2*%
%TO.N,GND*%
X106750000Y-102800000D03*
%TD*%
D13*
%TO.P,D1,1*%
%TO.N,DOUT_1*%
X115085000Y-106450000D03*
%TO.P,D1,2*%
%TO.N,GND*%
X115085000Y-107550000D03*
%TO.P,D1,3*%
%TO.N,DIN_1*%
X116915000Y-107550000D03*
%TO.P,D1,4*%
%TO.N,+VLED*%
X116915000Y-106450000D03*
%TD*%
%TO.P,D2,1*%
%TO.N,DOUT_2*%
X122085000Y-106450000D03*
%TO.P,D2,2*%
%TO.N,GND*%
X122085000Y-107550000D03*
%TO.P,D2,3*%
%TO.N,DOUT_1*%
X123915000Y-107550000D03*
%TO.P,D2,4*%
%TO.N,+VLED*%
X123915000Y-106450000D03*
%TD*%
%TO.P,D3,1*%
%TO.N,DOUT_3*%
X129085000Y-106450000D03*
%TO.P,D3,2*%
%TO.N,GND*%
X129085000Y-107550000D03*
%TO.P,D3,3*%
%TO.N,DOUT_2*%
X130915000Y-107550000D03*
%TO.P,D3,4*%
%TO.N,+VLED*%
X130915000Y-106450000D03*
%TD*%
%TO.P,D4,1*%
%TO.N,DOUT_4*%
X136085000Y-106450000D03*
%TO.P,D4,2*%
%TO.N,GND*%
X136085000Y-107550000D03*
%TO.P,D4,3*%
%TO.N,DOUT_3*%
X137915000Y-107550000D03*
%TO.P,D4,4*%
%TO.N,+VLED*%
X137915000Y-106450000D03*
%TD*%
%TO.P,D5,1*%
%TO.N,DOUT_5*%
X143085000Y-106450000D03*
%TO.P,D5,2*%
%TO.N,GND*%
X143085000Y-107550000D03*
%TO.P,D5,3*%
%TO.N,DOUT_4*%
X144915000Y-107550000D03*
%TO.P,D5,4*%
%TO.N,+VLED*%
X144915000Y-106450000D03*
%TD*%
D12*
%TO.P,C2,1*%
%TO.N,+VLED*%
X112750000Y-102800000D03*
%TO.P,C2,2*%
%TO.N,GND*%
X114250000Y-102800000D03*
%TD*%
%TO.P,C3,1*%
%TO.N,+VLED*%
X119750000Y-102800000D03*
%TO.P,C3,2*%
%TO.N,GND*%
X121250000Y-102800000D03*
%TD*%
%TO.P,C4,1*%
%TO.N,+VLED*%
X126750000Y-102800000D03*
%TO.P,C4,2*%
%TO.N,GND*%
X128250000Y-102800000D03*
%TD*%
%TO.P,C5,1*%
%TO.N,+VLED*%
X133750000Y-102800000D03*
%TO.P,C5,2*%
%TO.N,GND*%
X135250000Y-102800000D03*
%TD*%
%TO.P,C6,1*%
%TO.N,+VLED*%
X140750000Y-102800000D03*
%TO.P,C6,2*%
%TO.N,GND*%
X142250000Y-102800000D03*
%TD*%
D14*
%TO.P,TP1,1*%
%TO.N,DOUT_5*%
X147000000Y-104000000D03*
%TD*%
D15*
%TO.N,GND*%
X100600000Y-112000000D03*
X106750000Y-103800000D03*
X106750000Y-111000000D03*
%TO.N,DIN_1*%
X109000000Y-108700000D03*
X118000000Y-109000000D03*
%TO.N,DOUT_1*%
X115085000Y-104500000D03*
X125000000Y-109000000D03*
%TO.N,DOUT_2*%
X122085000Y-104500000D03*
X132000000Y-109000000D03*
%TO.N,DOUT_3*%
X129085000Y-104500000D03*
X139000000Y-109000000D03*
%TO.N,DOUT_4*%
X136085000Y-104500000D03*
X146000000Y-109000000D03*
%TO.N,DOUT_5*%
X143085000Y-104500000D03*
X146200000Y-104500000D03*
%TD*%
%TO.N,+VLED*%
D16*
X102500000Y-104460000D02*
X102500000Y-101000000D01*
X102500000Y-101000000D02*
X144915000Y-101000000D01*
D17*
X105250000Y-102800000D02*
X105250000Y-101000000D01*
X112750000Y-102800000D02*
X112750000Y-101000000D01*
X119750000Y-102800000D02*
X119750000Y-101000000D01*
X126750000Y-102800000D02*
X126750000Y-101000000D01*
X133750000Y-102800000D02*
X133750000Y-101000000D01*
X140750000Y-102800000D02*
X140750000Y-101000000D01*
X116915000Y-101000000D02*
X116915000Y-106450000D01*
X123915000Y-101000000D02*
X123915000Y-106450000D01*
X130915000Y-101000000D02*
X130915000Y-106450000D01*
X137915000Y-101000000D02*
X137915000Y-106450000D01*
X144915000Y-101000000D02*
X144915000Y-106450000D01*
%TO.N,GND*%
D16*
X100600000Y-112000000D02*
X143085000Y-112000000D01*
D17*
X114250000Y-102800000D02*
X114250000Y-112000000D01*
X121250000Y-102800000D02*
X121250000Y-112000000D01*
X128250000Y-102800000D02*
X128250000Y-112000000D01*
X135250000Y-102800000D02*
X135250000Y-112000000D01*
X142250000Y-102800000D02*
X142250000Y-112000000D01*
X115085000Y-107550000D02*
X115085000Y-112000000D01*
X122085000Y-107550000D02*
X122085000Y-112000000D01*
X129085000Y-107550000D02*
X129085000Y-112000000D01*
X136085000Y-107550000D02*
X136085000Y-112000000D01*
X143085000Y-107550000D02*
X143085000Y-112000000D01*
X106750000Y-102800000D02*
X106750000Y-103800000D01*
X106750000Y-111000000D02*
X106750000Y-112000000D01*
%TO.N,DIN_RAW*%
X102500000Y-109540000D02*
X105750000Y-109540000D01*
%TO.N,DIN_1*%
X107250000Y-109540000D02*
X109000000Y-109540000D01*
X109000000Y-109540000D02*
X109000000Y-108700000D01*
X118000000Y-109000000D02*
X116915000Y-109000000D01*
X116915000Y-109000000D02*
X116915000Y-107550000D01*
%TO.N,DOUT_1*%
X115085000Y-106450000D02*
X115085000Y-104500000D01*
X125000000Y-109000000D02*
X123915000Y-109000000D01*
X123915000Y-109000000D02*
X123915000Y-107550000D01*
%TO.N,DOUT_2*%
X122085000Y-106450000D02*
X122085000Y-104500000D01*
X132000000Y-109000000D02*
X130915000Y-109000000D01*
X130915000Y-109000000D02*
X130915000Y-107550000D01*
%TO.N,DOUT_3*%
X129085000Y-106450000D02*
X129085000Y-104500000D01*
X139000000Y-109000000D02*
X137915000Y-109000000D01*
X137915000Y-109000000D02*
X137915000Y-107550000D01*
%TO.N,DOUT_4*%
X136085000Y-106450000D02*
X136085000Y-104500000D01*
X146000000Y-109000000D02*
X144915000Y-109000000D01*
X144915000Y-109000000D02*
X144915000Y-107550000D01*
%TO.N,DOUT_5*%
X143085000Y-106450000D02*
X143085000Y-104500000D01*
X146200000Y-104500000D02*
X147000000Y-104000000D01*
%TD*%
M02*
